# xmcd
# Copyright (C) 1995-1998 Ti Kan
#
# Track frame offsets:
#       150
#       15285
#       29703
#       46219
#       63476
#       80044
#       95553
#       111393
#       127899
#       145077
#       160003
#       175356
#
# Disc length: 2594 seconds
#
# Revision: 0
# Processed by: cddbd v1.5.1PL0 Copyright (c) Steve Scherf et al.
# Submitted via: CD-Transfer v1.0
#
DISCID=9d0a200c
DTITLE=Radio - Radio
DYEAR=2005
DGENRE=
TTITLE0=Flucht Nach Vor
TTITLE1=Um Di
TTITLE2=Dänkpause
TTITLE3=Schatteschpiu
TTITLE4=Schtärn
TTITLE5=Hei?
TTITLE6=Tröimer
TTITLE7=Tanze
TTITLE8=Nümme Weh
TTITLE9=Dräihpunkt
TTITLE10=Zueversicht
TTITLE11=Klartegscht
EXTD=
EXTT0=
EXTT1=
EXTT2=
EXTT3=
EXTT4=
EXTT5=
EXTT6=
EXTT7=
EXTT8=
EXTT9=
EXTT10=
EXTT11=
PLAYORDER=
